PathFileType	4	(X/Y/Z)	12_1_33_p1_0-377.trc
DataRate	CameraRate	NumFrames	NumMarkers	Units	OrigDataRate	OrigDataStartFrame	OrigNumFrames
57.0	57.0	5	27	m	57.0	141	378
Frame#	Time	RHip			RKnee			RAnkle			RBigToe			RSmallToe			RHeel			LHip			LKnee			LAnkle			LBigToe			LSmallToe			LHeel			Neck			Head			Nose			RShoulder			RElbow			RWrist			RThumb			RIndex			RPinky			LShoulder			LElbow			LWrist			LThumb			LIndex			LPinky			
		X1	Y1	Z1	X2	Y2	Z2	X3	Y3	Z3	X4	Y4	Z4	X5	Y5	Z5	X6	Y6	Z6	X7	Y7	Z7	X8	Y8	Z8	X9	Y9	Z9	X10	Y10	Z10	X11	Y11	Z11	X12	Y12	Z12	X13	Y13	Z13	X14	Y14	Z14	X15	Y15	Z15	X16	Y16	Z16	X17	Y17	Z17	X18	Y18	Z18	X19	Y19	Z19	X20	Y20	Z20	X21	Y21	Z21	X22	Y22	Z22	X23	Y23	Z23	X24	Y24	Z24	X25	Y25	Z25	X26	Y26	Z26	X27	Y27	Z27	
141	2.473684210526316	0.4427369386115141	0.46914775425626465	1.0427481890351875	0.48507980116004373	0.542706008126308	1.50889477129361	0.5007911623202849	0.597432845529483	1.9264915904401092	0.47379568678466555	0.37844315115996185	1.9311918488288682	0.5290921312826973	0.38821131791029584	1.904741660849319	0.48524263240312754	0.6535806702938874	2.0188539419862876	0.2200479646666819	0.5292004120157714	1.0898276017146105	0.26523659245084524	0.5343146199531508	1.5299785648087407	0.3273270422997247	0.5893484908757793	1.956712952955747	0.32800097709933557	0.3956095374891234	1.9567266972204853	0.259930963062474	0.4316212773124975	1.9502797931293232	0.34442055597157417	0.6500501263429431	2.0175705910901147	0.2641135730912077	0.5428760586537095	0.42368399136019885	0.24133271540213183	0.4976765809617526	0.1700555743410757	0.2522915071640042	0.45557610371636803	0.29516116462304026	0.4499300519542164	0.5643329282142971	0.5318690247119263	0.5093654498313912	0.5019069100779835	0.7945065846346785	0.5556102120903103	0.4312194594144082	1.0375111005698179	0.4824644043565293	0.40870810907500593	1.1588659431434327	0.5082523589897178	0.3708923634613208	1.1816128194134259	0.549615884777147	0.40566242253672935	1.1906037255856605	0.10564491917225219	0.5569703897277314	0.5414867928986541	0.07737947063547976	0.5466080644978434	0.8380184022653567	0.12437611526158414	0.453355944179183	1.1035186415459899	0.18138577046132182	0.4334501021006084	1.1928860146316822	0.1670924702633874	0.4190076924204294	1.1995040134631365	0.11298970541154425	0.46260786005548593	1.2176173011514075
142	2.491228070175439	0.4464580202004577	0.4803225080588996	1.0461843825203652	0.48510060185933074	0.5426276725531279	1.508870412485119	0.5008056484885863	0.5972853500443313	1.9264334659366764	0.4737279800434551	0.37839064863918886	1.93116149272993	0.529019628932289	0.38791825203604097	1.9046496888393727	0.485645315291608	0.6546535833198288	2.019808211564556	0.21993402929653033	0.5294596204831518	1.0896513349676802	0.26638716225994663	0.5357320099486147	1.5354046531136807	0.32734955633151924	0.5892794597837919	1.9567152465287092	0.3305396097517871	0.3806921438082677	1.9409341536264504	0.25993762653038555	0.43176357368871404	1.9502697262631654	0.34440403122974544	0.6496187592443576	2.017466022183166	0.26020128655366365	0.5407339262211666	0.42380381246188065	0.24131769788798102	0.49755082083209873	0.17007255448305847	0.24947583099820517	0.44530097105889954	0.2945926044836913	0.44995898286236075	0.5644593386919091	0.5318482049617339	0.5093595736375863	0.5020122976255773	0.7945682504479066	0.555630956340607	0.43127889181266205	1.0375729677162597	0.4818011761961159	0.41001104050538717	1.1555481523489128	0.5083004700156207	0.3708765682424286	1.1816270150257497	0.5495614048645167	0.4057784035004056	1.1907143558418973	0.10567786587056749	0.5573329561031574	0.541472245300026	0.07742951761614868	0.5465736347824717	0.8379677250379772	0.12434212245109003	0.45325750549705024	1.103443301737574	0.18060246290274115	0.43209996673927026	1.1890465218657738	0.16353052117781045	0.41671335450996055	1.19915602878101	0.11793697948876782	0.44958122314216975	1.2114914281117364
143	2.508771929824561	0.4426152565645609	0.4691584564516781	1.0426564411154993	0.4850970930745944	0.5425559878877534	1.5088610731167453	0.5007779190555914	0.5973373418609645	1.9264119802275963	0.4737129958734571	0.3783238591563509	1.9311156252795665	0.5290520983470998	0.3878708221691975	1.9046347668904688	0.4854331258103712	0.6540373350078561	2.0192626867956367	0.2199487099824744	0.5293508222217925	1.0896109928233697	0.2664050723767026	0.5356959234733156	1.5352981514534279	0.32726758038420506	0.5894026997272663	1.9565729593720758	0.3263644120753152	0.39451035181510236	1.9510767595518008	0.25987214125763725	0.43193613590273794	1.9503016618760272	0.3444103944695705	0.6499780510468024	2.0175403649998778	0.2602118639591563	0.5407161037885235	0.4238024470389127	0.24130262546655748	0.49758012887939307	0.1700420305452476	0.24946439286404326	0.44526336627849195	0.2946328060142033	0.44991379427093003	0.5643603796769642	0.5318355706415323	0.5093681862625048	0.501836425303709	0.7945283921773224	0.5553929516874286	0.43135866984258825	1.0377290910259542	0.4816133708441876	0.41007855089129513	1.1555656464798638	0.5045900081702508	0.3704064349761439	1.1820478991163876	0.5467902868071803	0.41914234852318427	1.1969816899901384	0.1056928017425546	0.5572903281614767	0.5414312733388527	0.07797740307209489	0.5456498498274297	0.8414544869318958	0.12435041903496938	0.453155196976988	1.103326478782994	0.18058821344898596	0.43216191178268576	1.1890755747739168	0.16701155832142064	0.4187923894711504	1.1995178565705888	0.11784419078387053	0.4496135625634795	1.2114899562436885
144	2.526315789473684	0.4419943134601851	0.47039270905401337	1.0391963111744358	0.4851128413963072	0.5427623448471752	1.509181783218184	0.503057794311553	0.609958942176951	1.933183441641525	0.4738995976927355	0.3785142164260792	1.9313082779579795	0.5332675317345511	0.39920545963139026	1.9119056083165888	0.4834290275915509	0.6525275430343296	2.0129824194030395	0.21986742932922437	0.5293779635240881	1.0894576025099985	0.26530989141331296	0.534342520539399	1.5300299399024722	0.3296522756638346	0.6003814140261945	1.9592615547798098	0.3306556740854561	0.3810063853496587	1.941305163510983	0.26000703020062765	0.4317483481989396	1.9502493534395464	0.34306620307906033	0.649123287648449	2.011974062901395	0.26010947522932776	0.5406884096385823	0.42375109285051776	0.24121114221844187	0.49755507721929004	0.17001162740663706	0.252241054479428	0.4556498904197443	0.2951020274956695	0.44993104005226575	0.5644348197042212	0.531866250577659	0.5095985978728681	0.5021937987661721	0.794894826503436	0.5552293316805351	0.43128257155113026	1.0377050546104172	0.4821211839651737	0.4086182511730099	1.1587410052154234	0.5041786725238784	0.37071007701565295	1.1822610746690656	0.54393286050588	0.40319014046185336	1.1866551390593112	0.10578336692761861	0.5571734402762222	0.5413214155695244	0.07751574274516253	0.5466683839454901	0.8380316654280101	0.12438522165750104	0.45336859230620563	1.103650228832459	0.17729465674658343	0.4460599968105431	1.1989464638537397	0.16351315043907616	0.4167477309115079	1.1993739898906919	0.1132114244997204	0.46254017490946464	1.2178983971868025
145	2.543859649122807	0.44547450366130037	0.4569594705145395	1.0338817873118507	0.4850974120277426	0.5426455249670092	1.5090853923975198	0.5030663315303334	0.6100191902734379	1.9331778894567426	0.4738282508508057	0.3783815905997523	1.9312124608183971	0.5332363514847401	0.3991795337383231	1.9118905635735288	0.4834458452202413	0.6524531082539894	2.0129242442831194	0.21991417927010265	0.5292684094916588	1.089585993347345	0.2648556179768794	0.5345890421533134	1.534345567424419	0.32964106680781685	0.6004589298393356	1.9591528743312296	0.33060551386687564	0.38112342224634904	1.9412779637080504	0.2599699624712762	0.43206403083552386	1.9501244004572627	0.3431495069275177	0.6491191273612179	2.011977165893197	0.2559382776102399	0.5540945127350906	0.42606628816553116	0.24122856164368864	0.49754325017371526	0.17003931730041613	0.25224086340840013	0.4556004454521506	0.2950882527891993	0.44989171022247093	0.5644602216246996	0.5318731882317279	0.5096347487876737	0.5020695611318401	0.794914908752788	0.5552414055632211	0.4310602126393598	1.0375836352269936	0.4820247691377062	0.4083966014093276	1.1585213979273574	0.5007966479651673	0.3833555896026746	1.1882591032595706	0.5449675641452641	0.404388622631381	1.1907098187262943	0.10575055201311465	0.5571004768256287	0.5413488022239104	0.07747865251865749	0.5467397903580393	0.8381056995095154	0.12441549631807512	0.45342847386306495	1.103709093389975	0.17727000437806714	0.44599217554465753	1.1989380453823733	0.1669605609496858	0.418805007490829	1.1996912675793094	0.11802492125495388	0.4498688004731013	1.2119039086740575
